name D:\school\WTK\thesis\model\3dpredictsim\Results\debug_batch\Pog_s1_tmt_aCst_d05_k2000_ig24.mot
datacolumns 128
datarows 4
range 0.00000000 0.03230401
endheader
time	pelvis_tilt	pelvis_list	pelvis_rotation	pelvis_tx	pelvis_ty	pelvis_tz	hip_flexion_l	hip_adduction_l	hip_rotation_l	hip_flexion_r	hip_adduction_r	hip_rotation_r	knee_angle_l	knee_angle_r	ankle_angle_l	ankle_angle_r	subtalar_angle_l	subtalar_angle_r	tmt_angle_l	tmt_angle_r	mtp_angle_l	mtp_angle_r	lumbar_extension	lumbar_bending	lumbar_rotation	arm_flex_l	arm_add_l	arm_rot_l	arm_flex_r	arm_add_r	arm_rot_r	elbow_flex_l	elbow_flex_r	pro_sup_l	pro_sup_r	glut_med1_l/activation	glut_med2_l/activation	glut_med3_l/activation	glut_min1_l/activation	glut_min2_l/activation	glut_min3_l/activation	semimem_l/activation	semiten_l/activation	bifemlh_l/activation	bifemsh_l/activation	sar_l/activation	add_long_l/activation	add_brev_l/activation	add_mag1_l/activation	add_mag2_l/activation	add_mag3_l/activation	tfl_l/activation	pect_l/activation	grac_l/activation	glut_max1_l/activation	glut_max2_l/activation	glut_max3_l/activation	iliacus_l/activation	psoas_l/activation	quad_fem_l/activation	gem_l/activation	peri_l/activation	rect_fem_l/activation	vas_med_l/activation	vas_int_l/activation	vas_lat_l/activation	med_gas_l/activation	lat_gas_l/activation	soleus_l/activation	tib_post_l/activation	flex_dig_l/activation	flex_hal_l/activation	tib_ant_l/activation	per_brev_l/activation	per_long_l/activation	per_tert_l/activation	ext_dig_l/activation	ext_hal_l/activation	ercspn_l/activation	intobl_l/activation	extobl_l/activation	glut_med1_r/activation	glut_med2_r/activation	glut_med3_r/activation	glut_min1_r/activation	glut_min2_r/activation	glut_min3_r/activation	semimem_r/activation	semiten_r/activation	bifemlh_r/activation	bifemsh_r/activation	sar_r/activation	add_long_r/activation	add_brev_r/activation	add_mag1_r/activation	add_mag2_r/activation	add_mag3_r/activation	tfl_r/activation	pect_r/activation	grac_r/activation	glut_max1_r/activation	glut_max2_r/activation	glut_max3_r/activation	iliacus_r/activation	psoas_r/activation	quad_fem_r/activation	gem_r/activation	peri_r/activation	rect_fem_r/activation	vas_med_r/activation	vas_int_r/activation	vas_lat_r/activation	med_gas_r/activation	lat_gas_r/activation	soleus_r/activation	tib_post_r/activation	flex_dig_r/activation	flex_hal_r/activation	tib_ant_r/activation	per_brev_r/activation	per_long_r/activation	per_tert_r/activation	ext_dig_r/activation	ext_hal_r/activation	ercspn_r/activation	intobl_r/activation	extobl_r/activation	
          0.00000000	         -2.92811288	         -2.25574729	          5.53239653	          0.00000000	          0.85793806	         -0.00192370	        -17.91866507	         -1.92154043	          6.97056803	         31.44527371	          3.26955531	         -1.81624265	         -7.80283549	        -15.09770524	          0.49813426	          6.49780405	         11.05348032	         -2.88799130	          0.83328325	          0.01936145	         22.15729197	         -0.11310106	         -1.90103887	          0.65174011	         -1.96545227	          7.36869088	        -13.45660883	         16.68491198	         -9.35844094	        -13.53681545	          6.20492198	         36.51791135	         14.96242610	         86.51662706	         86.51662706	          0.28430792	          0.10257840	          0.06955723	          0.31275945	          0.21444824	          0.10765210	          0.05000062	          0.05000006	          0.05000004	          0.07288759	          0.10476559	          0.10569419	          0.06384364	          0.05000055	          0.05000070	          0.05000022	          0.30990867	          0.11410174	          0.05000054	          0.05000056	          0.05000031	          0.05000028	          0.34062761	          0.57786388	          0.05000006	          0.05000014	          0.05000014	          0.20355015	          0.08759708	          0.06448646	          0.05825884	          0.29730406	          0.40119010	          0.28551038	          0.25749654	          0.26046537	          0.34075635	          0.05000000	          0.05897344	          0.16413245	          0.05000006	          0.05000001	          0.05000005	          0.05000001	          0.05000001	          0.05000001	          0.05000340	          0.05000139	          0.05000004	          0.05897333	          0.05897331	          0.05000053	          0.05897325	          0.05000034	          0.20212811	          0.05000009	          0.05000043	          0.11876668	          0.28835937	          0.13064666	          0.12135614	          0.09535105	          0.05000003	          0.08202105	          0.07371932	          0.05000011	          0.14795921	          0.15199455	          0.05897335	          0.05000023	          0.15370845	          0.26054383	          0.14319483	          0.06259219	          0.15625500	          0.15310904	          0.13464383	          0.05000148	          0.05028758	          0.05478033	          0.05000000	          0.05000012	          0.05000011	          0.57959685	          0.35793428	          0.20069094	          0.39293571	          0.57278820	          0.30404696	          0.06528620	          0.09713696	          0.10409904	
          0.01076800	         -2.92111026	         -2.34317013	          5.81034105	          0.01625331	          0.85687423	         -0.00172293	        -17.71604668	         -2.21148165	          6.74127306	         30.78266870	          3.61141955	         -1.55894615	         -9.85082085	        -15.25967650	         -0.33754501	          5.87762459	         11.98634636	         -3.35087793	          0.70994962	          0.00827672	         23.13067433	         -0.06908982	         -1.69926012	          0.87119231	         -2.03568065	          7.18428435	        -13.46484644	         16.90424702	        -10.38874342	        -13.52996021	          6.10189964	         37.58658770	         14.83816709	         86.51662706	         86.51662706	          0.24104787	          0.08697016	          0.05897348	          0.26517026	          0.18181799	          0.09127186	          0.05000186	          0.05000032	          0.05000123	          0.06179709	          0.08882460	          0.19240228	          0.14263706	          0.06955712	          0.05897443	          0.05897384	          0.26275326	          0.09674086	          0.05000225	          0.05000323	          0.05000721	          0.05897333	          0.28879800	          0.53070380	          0.05897334	          0.05897360	          0.05897324	          0.17257814	          0.10844340	          0.15876979	          0.15876442	          0.25206651	          0.34014534	          0.24206735	          0.21831611	          0.22083330	          0.28890722	          0.05000000	          0.05000012	          0.14401879	          0.05000002	          0.05000000	          0.05000004	          0.05660277	          0.06180325	          0.05394498	          0.05000000	          0.05000001	          0.11050985	          0.05000001	          0.05000002	          0.05000004	          0.05000002	          0.05000005	          0.17137247	          0.05000003	          0.05000025	          0.10069528	          0.24448290	          0.32659578	          0.20897426	          0.11903928	          0.05000049	          0.06954134	          0.08710312	          0.07886290	          0.12544599	          0.12886721	          0.05000006	          0.05897430	          0.38382497	          0.22089970	          0.12140643	          0.06955690	          0.17679752	          0.19148585	          0.15777068	          0.05000015	          0.05897902	          0.05000000	          0.06481157	          0.06955720	          0.06955698	          0.49140587	          0.40222414	          0.23525136	          0.33314700	          0.52073288	          0.25778344	          0.05535230	          0.08235668	          0.08825941	
          0.02153601	         -2.91037027	         -2.43062899	          6.05948498	          0.03275062	          0.85580979	         -0.00153302	        -17.42754334	         -2.49069384	          6.50037024	         29.95567256	          3.89163142	         -1.28037945	        -12.04054585	        -15.68307968	         -1.34251561	          5.43918167	         12.84966528	         -3.82998112	          0.58958349	         -0.00505558	         23.92731502	         -0.18444011	         -1.47933959	          1.09695344	         -2.09493055	          6.91987905	        -13.47256647	         17.05352293	        -11.41811213	        -13.52768847	          6.05498594	         38.62097030	         14.74160005	         86.51662706	         86.51662706	          0.34454926	          0.07373686	          0.05000015	          0.35370956	          0.15415274	          0.07738402	          0.05096768	          0.05000008	          0.05000006	          0.05239414	          0.07530963	          0.16312653	          0.12093357	          0.05897340	          0.05000103	          0.05000048	          0.25639997	          0.08202159	          0.05000044	          0.05000072	          0.05000035	          0.05000026	          0.24485478	          0.49589200	          0.05000008	          0.05000038	          0.05000009	          0.14631880	          0.09194276	          0.13461153	          0.13460697	          0.21371227	          0.28838909	          0.20523457	          0.18509732	          0.18723152	          0.24494735	          0.05000001	          0.10388984	          0.18543400	          0.05000005	          0.05000007	          0.05000008	          0.06013936	          0.05239932	          0.05000001	          0.25582994	          0.25834491	          0.31830667	          0.34665984	          0.22250012	          0.19259291	          0.07826201	          0.05002666	          0.14856007	          0.08204061	          0.05897340	          0.08537359	          0.20728260	          0.27690126	          0.17717695	          0.10262037	          0.05000014	          0.05896106	          0.07384981	          0.17252369	          0.15984486	          0.10925893	          0.05517562	          0.05000089	          0.32542250	          0.18728783	          0.24507138	          0.05897319	          0.14989617	          0.16234954	          0.13376443	          0.05000024	          0.05000486	          0.05441935	          0.05494990	          0.05897351	          0.05897338	          0.58031793	          0.42387657	          0.21457930	          0.44518176	          0.60891655	          0.31579425	          0.06604559	          0.10009365	          0.07482993	
          0.03230401	         -2.89791188	         -2.50851847	          6.27308266	          0.04928173	          0.85477541	         -0.00132034	        -17.03258463	         -2.75179714	          6.26487276	         29.05611958	          4.15593974	         -1.00475905	        -14.37945198	        -16.05213986	         -2.48158697	          5.08973325	         13.65380883	         -4.33040806	          0.45286355	         -0.00839597	         24.44854441	         -0.19113051	         -1.26320244	          1.31822976	         -2.14411394	          6.61199716	        -13.48683995	         17.15786834	        -12.39489911	        -13.52559717	          6.07398095	         39.59690134	         14.64031450	         86.51662706	         86.51662706	          0.29212296	          0.06251713	          0.05000002	          0.29988946	          0.13069701	          0.06560935	          0.06907188	          0.05000006	          0.05000006	          0.05000003	          0.06385065	          0.18802676	          0.13911373	          0.05000041	          0.05000194	          0.05001751	          0.21738652	          0.06954210	          0.05000018	          0.05000072	          0.05000051	          0.05000039	          0.20759788	          0.44650584	          0.05000004	          0.05000017	          0.05000004	          0.12405505	          0.11412961	          0.11412963	          0.11412960	          0.18119398	          0.24450804	          0.17400624	          0.15693307	          0.15874256	          0.20767639	          0.09960617	          0.15540159	          0.15721897	          0.05000064	          0.17121140	          0.05000036	          0.09496865	          0.05000000	          0.05000001	          0.35128560	          0.37439740	          0.42402680	          0.29391251	          0.18864519	          0.26478844	          0.07387160	          0.11399851	          0.12595532	          0.06955744	          0.05000020	          0.07238323	          0.17574268	          0.23476870	          0.21731033	          0.16189498	          0.05000009	          0.05000325	          0.12454306	          0.25350256	          0.20361441	          0.16103839	          0.05000003	          0.05000003	          0.27590650	          0.15879029	          0.23794960	          0.05000001	          0.17452338	          0.22278576	          0.16756845	          0.05000000	          0.05000000	          0.05000000	          0.05000000	          0.05000018	          0.05000007	          0.64473934	          0.35937990	          0.18192911	          0.67703007	          0.62707494	          0.40391569	          0.08387759	          0.08486348	          0.06344387	
